<mxfile host="app.diagrams.net" modified="2023-04-08T18:57:13.583Z" agent="Mozilla/5.0 (X11; Ubuntu; Linux x86_64; rv:109.0) Gecko/20100101 Firefox/111.0" etag="CweK1syBnvP4nTCVHe4h" version="21.1.5" type="device">
  <diagram name="Page-1" id="bQ7ZuWAlFZcYcX2RZdaG">
    <mxGraphModel dx="1194" dy="741" grid="1" gridSize="10" guides="1" tooltips="1" connect="1" arrows="1" fold="1" page="1" pageScale="1" pageWidth="850" pageHeight="1100" math="0" shadow="0">
      <root>
        <mxCell id="0" />
        <mxCell id="1" parent="0" />
        <mxCell id="NkZpbGha3Mq-hVSQ7GWd-1" value="Adventure Tourists" style="rounded=0;whiteSpace=wrap;html=1;fillColor=#f8cecc;strokeColor=#b85450;" vertex="1" parent="1">
          <mxGeometry x="55" y="40" width="120" height="40" as="geometry" />
        </mxCell>
        <mxCell id="NkZpbGha3Mq-hVSQ7GWd-3" value="Cultural Tourists" style="rounded=0;whiteSpace=wrap;html=1;fillColor=#f8cecc;strokeColor=#b85450;" vertex="1" parent="1">
          <mxGeometry x="280" y="40" width="110" height="40" as="geometry" />
        </mxCell>
        <mxCell id="NkZpbGha3Mq-hVSQ7GWd-4" value="Luxury Tourists" style="rounded=0;whiteSpace=wrap;html=1;fillColor=#f8cecc;strokeColor=#b85450;" vertex="1" parent="1">
          <mxGeometry x="470" y="40" width="110" height="40" as="geometry" />
        </mxCell>
        <mxCell id="NkZpbGha3Mq-hVSQ7GWd-5" value="Family Tourists" style="rounded=0;whiteSpace=wrap;html=1;fillColor=#f8cecc;strokeColor=#b85450;" vertex="1" parent="1">
          <mxGeometry x="620" y="40" width="120" height="40" as="geometry" />
        </mxCell>
        <mxCell id="NkZpbGha3Mq-hVSQ7GWd-6" value="Budget Tourists" style="rounded=0;whiteSpace=wrap;html=1;fillColor=#f8cecc;strokeColor=#b85450;" vertex="1" parent="1">
          <mxGeometry x="760" y="40" width="120" height="40" as="geometry" />
        </mxCell>
        <mxCell id="NkZpbGha3Mq-hVSQ7GWd-7" value="" style="rounded=1;whiteSpace=wrap;html=1;fillColor=#d5e8d4;strokeColor=#82b366;" vertex="1" parent="1">
          <mxGeometry y="135" width="230" height="70" as="geometry" />
        </mxCell>
        <mxCell id="NkZpbGha3Mq-hVSQ7GWd-8" value="enjoy activities that are physically challenging" style="rounded=0;whiteSpace=wrap;html=1;" vertex="1" parent="1">
          <mxGeometry x="10" y="140" width="90" height="60" as="geometry" />
        </mxCell>
        <mxCell id="NkZpbGha3Mq-hVSQ7GWd-9" value="involve an element of risk" style="rounded=0;whiteSpace=wrap;html=1;" vertex="1" parent="1">
          <mxGeometry x="130" y="140" width="90" height="60" as="geometry" />
        </mxCell>
        <mxCell id="NkZpbGha3Mq-hVSQ7GWd-10" value="" style="endArrow=none;html=1;rounded=0;exitX=0.5;exitY=0;exitDx=0;exitDy=0;" edge="1" parent="1" source="NkZpbGha3Mq-hVSQ7GWd-7" target="NkZpbGha3Mq-hVSQ7GWd-1">
          <mxGeometry width="50" height="50" relative="1" as="geometry">
            <mxPoint x="370" y="160" as="sourcePoint" />
            <mxPoint x="420" y="110" as="targetPoint" />
          </mxGeometry>
        </mxCell>
        <mxCell id="NkZpbGha3Mq-hVSQ7GWd-12" value="" style="rounded=1;whiteSpace=wrap;html=1;fillColor=#d5e8d4;strokeColor=#82b366;" vertex="1" parent="1">
          <mxGeometry y="225" width="230" height="165" as="geometry" />
        </mxCell>
        <mxCell id="NkZpbGha3Mq-hVSQ7GWd-13" value="likes  activities such as hiking" style="rounded=0;whiteSpace=wrap;html=1;" vertex="1" parent="1">
          <mxGeometry x="10" y="240" width="210" height="30" as="geometry" />
        </mxCell>
        <mxCell id="NkZpbGha3Mq-hVSQ7GWd-14" value="likes  activities such as rock climbing" style="rounded=0;whiteSpace=wrap;html=1;" vertex="1" parent="1">
          <mxGeometry x="10" y="290" width="210" height="30" as="geometry" />
        </mxCell>
        <mxCell id="NkZpbGha3Mq-hVSQ7GWd-15" value="&lt;div&gt;likes  activities such as extreme sports&lt;/div&gt;" style="rounded=0;whiteSpace=wrap;html=1;" vertex="1" parent="1">
          <mxGeometry x="10" y="340" width="210" height="30" as="geometry" />
        </mxCell>
        <mxCell id="NkZpbGha3Mq-hVSQ7GWd-17" value="OR" style="rounded=0;whiteSpace=wrap;html=1;fillColor=#e1d5e7;strokeColor=#9673a6;" vertex="1" parent="1">
          <mxGeometry x="100" y="160" width="30" height="20" as="geometry" />
        </mxCell>
        <mxCell id="NkZpbGha3Mq-hVSQ7GWd-18" value="OR" style="rounded=0;whiteSpace=wrap;html=1;fillColor=#e1d5e7;strokeColor=#9673a6;" vertex="1" parent="1">
          <mxGeometry x="100" y="320" width="30" height="20" as="geometry" />
        </mxCell>
        <mxCell id="NkZpbGha3Mq-hVSQ7GWd-19" value="OR" style="rounded=0;whiteSpace=wrap;html=1;fillColor=#e1d5e7;strokeColor=#9673a6;" vertex="1" parent="1">
          <mxGeometry x="100" y="270" width="30" height="20" as="geometry" />
        </mxCell>
        <mxCell id="NkZpbGha3Mq-hVSQ7GWd-23" value="AND" style="rounded=0;whiteSpace=wrap;html=1;fillColor=#fff2cc;strokeColor=#d6b656;" vertex="1" parent="1">
          <mxGeometry x="100" y="205" width="30" height="20" as="geometry" />
        </mxCell>
        <mxCell id="NkZpbGha3Mq-hVSQ7GWd-24" value="prioritize experiences over luxury accommodations" style="rounded=0;whiteSpace=wrap;html=1;" vertex="1" parent="1">
          <mxGeometry x="60" y="500" width="120" height="60" as="geometry" />
        </mxCell>
        <mxCell id="NkZpbGha3Mq-hVSQ7GWd-25" value="" style="rounded=1;whiteSpace=wrap;html=1;fillColor=#d5e8d4;strokeColor=#82b366;" vertex="1" parent="1">
          <mxGeometry x="5" y="410" width="220" height="70" as="geometry" />
        </mxCell>
        <mxCell id="NkZpbGha3Mq-hVSQ7GWd-26" value="tend to be young" style="rounded=0;whiteSpace=wrap;html=1;" vertex="1" parent="1">
          <mxGeometry x="5" y="415" width="100" height="60" as="geometry" />
        </mxCell>
        <mxCell id="NkZpbGha3Mq-hVSQ7GWd-27" value="tend to be active" style="rounded=0;whiteSpace=wrap;html=1;" vertex="1" parent="1">
          <mxGeometry x="135" y="415" width="80" height="60" as="geometry" />
        </mxCell>
        <mxCell id="NkZpbGha3Mq-hVSQ7GWd-28" value="OR" style="rounded=0;whiteSpace=wrap;html=1;fillColor=#e1d5e7;strokeColor=#9673a6;" vertex="1" parent="1">
          <mxGeometry x="105" y="425" width="30" height="20" as="geometry" />
        </mxCell>
        <mxCell id="NkZpbGha3Mq-hVSQ7GWd-30" value="AND" style="rounded=0;whiteSpace=wrap;html=1;fillColor=#fff2cc;strokeColor=#d6b656;" vertex="1" parent="1">
          <mxGeometry x="100" y="390" width="30" height="20" as="geometry" />
        </mxCell>
        <mxCell id="NkZpbGha3Mq-hVSQ7GWd-31" value="AND" style="rounded=0;whiteSpace=wrap;html=1;fillColor=#fff2cc;strokeColor=#d6b656;" vertex="1" parent="1">
          <mxGeometry x="105" y="480" width="30" height="20" as="geometry" />
        </mxCell>
        <mxCell id="NkZpbGha3Mq-hVSQ7GWd-33" value="interested in immersing themselves in the local culture of the places" style="rounded=0;whiteSpace=wrap;html=1;" vertex="1" parent="1">
          <mxGeometry x="270" y="120" width="170" height="50" as="geometry" />
        </mxCell>
        <mxCell id="NkZpbGha3Mq-hVSQ7GWd-34" value="AND" style="rounded=0;whiteSpace=wrap;html=1;fillColor=#fff2cc;strokeColor=#d6b656;" vertex="1" parent="1">
          <mxGeometry x="330" y="170" width="30" height="20" as="geometry" />
        </mxCell>
        <mxCell id="NkZpbGha3Mq-hVSQ7GWd-35" value="" style="rounded=1;whiteSpace=wrap;html=1;fillColor=#d5e8d4;strokeColor=#82b366;" vertex="1" parent="1">
          <mxGeometry x="620" y="110" width="120" height="110" as="geometry" />
        </mxCell>
        <mxCell id="NkZpbGha3Mq-hVSQ7GWd-36" value="" style="rounded=1;whiteSpace=wrap;html=1;fillColor=#d5e8d4;strokeColor=#82b366;" vertex="1" parent="1">
          <mxGeometry x="270" y="190" width="170" height="130" as="geometry" />
        </mxCell>
        <mxCell id="NkZpbGha3Mq-hVSQ7GWd-38" value="enjoy exploring historical sites" style="rounded=0;whiteSpace=wrap;html=1;" vertex="1" parent="1">
          <mxGeometry x="280" y="195" width="120" height="30" as="geometry" />
        </mxCell>
        <mxCell id="NkZpbGha3Mq-hVSQ7GWd-39" value="visiting museums" style="rounded=0;whiteSpace=wrap;html=1;" vertex="1" parent="1">
          <mxGeometry x="280" y="245" width="120" height="20" as="geometry" />
        </mxCell>
        <mxCell id="NkZpbGha3Mq-hVSQ7GWd-40" value="are interested in learning about the traditions" style="rounded=0;whiteSpace=wrap;html=1;" vertex="1" parent="1">
          <mxGeometry x="270" y="420" width="170" height="30" as="geometry" />
        </mxCell>
        <mxCell id="NkZpbGha3Mq-hVSQ7GWd-41" value="attending cultural events" style="rounded=0;whiteSpace=wrap;html=1;" vertex="1" parent="1">
          <mxGeometry x="280" y="285" width="120" height="30" as="geometry" />
        </mxCell>
        <mxCell id="NkZpbGha3Mq-hVSQ7GWd-42" value="OR" style="rounded=0;whiteSpace=wrap;html=1;fillColor=#e1d5e7;strokeColor=#9673a6;" vertex="1" parent="1">
          <mxGeometry x="325" y="225" width="30" height="20" as="geometry" />
        </mxCell>
        <mxCell id="NkZpbGha3Mq-hVSQ7GWd-43" value="OR" style="rounded=0;whiteSpace=wrap;html=1;fillColor=#e1d5e7;strokeColor=#9673a6;" vertex="1" parent="1">
          <mxGeometry x="325" y="265" width="30" height="20" as="geometry" />
        </mxCell>
        <mxCell id="NkZpbGha3Mq-hVSQ7GWd-45" value="AND" style="rounded=0;whiteSpace=wrap;html=1;fillColor=#fff2cc;strokeColor=#d6b656;" vertex="1" parent="1">
          <mxGeometry x="325" y="320" width="30" height="20" as="geometry" />
        </mxCell>
        <mxCell id="NkZpbGha3Mq-hVSQ7GWd-46" value="tend to be curious" style="rounded=0;whiteSpace=wrap;html=1;" vertex="1" parent="1">
          <mxGeometry x="270" y="340" width="170" height="20" as="geometry" />
        </mxCell>
        <mxCell id="NkZpbGha3Mq-hVSQ7GWd-47" value="tend to be open-minded" style="rounded=0;whiteSpace=wrap;html=1;" vertex="1" parent="1">
          <mxGeometry x="270" y="380" width="170" height="20" as="geometry" />
        </mxCell>
        <mxCell id="NkZpbGha3Mq-hVSQ7GWd-48" value="AND" style="rounded=0;whiteSpace=wrap;html=1;fillColor=#fff2cc;strokeColor=#d6b656;" vertex="1" parent="1">
          <mxGeometry x="340" y="360" width="30" height="20" as="geometry" />
        </mxCell>
        <mxCell id="NkZpbGha3Mq-hVSQ7GWd-49" value="AND" style="rounded=0;whiteSpace=wrap;html=1;fillColor=#fff2cc;strokeColor=#d6b656;" vertex="1" parent="1">
          <mxGeometry x="340" y="400" width="30" height="20" as="geometry" />
        </mxCell>
        <mxCell id="NkZpbGha3Mq-hVSQ7GWd-50" value="" style="endArrow=none;html=1;rounded=0;" edge="1" parent="1" source="NkZpbGha3Mq-hVSQ7GWd-33" target="NkZpbGha3Mq-hVSQ7GWd-3">
          <mxGeometry width="50" height="50" relative="1" as="geometry">
            <mxPoint x="370" y="280" as="sourcePoint" />
            <mxPoint x="420" y="230" as="targetPoint" />
          </mxGeometry>
        </mxCell>
        <mxCell id="NkZpbGha3Mq-hVSQ7GWd-51" value="tend to have fine dining" style="rounded=0;whiteSpace=wrap;html=1;" vertex="1" parent="1">
          <mxGeometry x="470" y="280" width="120" height="35" as="geometry" />
        </mxCell>
        <mxCell id="NkZpbGha3Mq-hVSQ7GWd-52" value="seek out luxury hotels" style="rounded=0;whiteSpace=wrap;html=1;" vertex="1" parent="1">
          <mxGeometry x="480" y="240" width="120" height="20" as="geometry" />
        </mxCell>
        <mxCell id="NkZpbGha3Mq-hVSQ7GWd-53" value="tend to have exclusive experiences" style="rounded=0;whiteSpace=wrap;html=1;" vertex="1" parent="1">
          <mxGeometry x="470" y="190" width="120" height="30" as="geometry" />
        </mxCell>
        <mxCell id="NkZpbGha3Mq-hVSQ7GWd-54" value="are willing to spend a premium for high-end accommodations" style="rounded=0;whiteSpace=wrap;html=1;" vertex="1" parent="1">
          <mxGeometry x="470" y="120" width="120" height="50" as="geometry" />
        </mxCell>
        <mxCell id="NkZpbGha3Mq-hVSQ7GWd-55" value="" style="rounded=1;whiteSpace=wrap;html=1;fillColor=#d5e8d4;strokeColor=#82b366;" vertex="1" parent="1">
          <mxGeometry x="760" y="320" width="140" height="100" as="geometry" />
        </mxCell>
        <mxCell id="NkZpbGha3Mq-hVSQ7GWd-57" value="" style="rounded=1;whiteSpace=wrap;html=1;fillColor=#d5e8d4;strokeColor=#82b366;" vertex="1" parent="1">
          <mxGeometry x="465" y="335" width="120" height="95" as="geometry" />
        </mxCell>
        <mxCell id="NkZpbGha3Mq-hVSQ7GWd-60" value="" style="endArrow=none;html=1;rounded=0;" edge="1" parent="1" source="NkZpbGha3Mq-hVSQ7GWd-54" target="NkZpbGha3Mq-hVSQ7GWd-4">
          <mxGeometry width="50" height="50" relative="1" as="geometry">
            <mxPoint x="480" y="130" as="sourcePoint" />
            <mxPoint x="530" y="80" as="targetPoint" />
          </mxGeometry>
        </mxCell>
        <mxCell id="NkZpbGha3Mq-hVSQ7GWd-61" value="AND" style="rounded=0;whiteSpace=wrap;html=1;fillColor=#fff2cc;strokeColor=#d6b656;" vertex="1" parent="1">
          <mxGeometry x="510" y="170" width="30" height="20" as="geometry" />
        </mxCell>
        <mxCell id="NkZpbGha3Mq-hVSQ7GWd-62" value="AND" style="rounded=0;whiteSpace=wrap;html=1;fillColor=#fff2cc;strokeColor=#d6b656;" vertex="1" parent="1">
          <mxGeometry x="510" y="220" width="30" height="20" as="geometry" />
        </mxCell>
        <mxCell id="NkZpbGha3Mq-hVSQ7GWd-63" value="AND" style="rounded=0;whiteSpace=wrap;html=1;fillColor=#fff2cc;strokeColor=#d6b656;" vertex="1" parent="1">
          <mxGeometry x="515" y="260" width="30" height="20" as="geometry" />
        </mxCell>
        <mxCell id="NkZpbGha3Mq-hVSQ7GWd-64" value="prioritize comfort and convenience over adventure" style="rounded=0;whiteSpace=wrap;html=1;" vertex="1" parent="1">
          <mxGeometry x="530" y="540" width="200" height="40" as="geometry" />
        </mxCell>
        <mxCell id="NkZpbGha3Mq-hVSQ7GWd-65" value="tend to have personal concierge services" style="rounded=0;whiteSpace=wrap;html=1;" vertex="1" parent="1">
          <mxGeometry x="465" y="390" width="120" height="30" as="geometry" />
        </mxCell>
        <mxCell id="NkZpbGha3Mq-hVSQ7GWd-66" value="tend to have private tours" style="rounded=0;whiteSpace=wrap;html=1;" vertex="1" parent="1">
          <mxGeometry x="465" y="340" width="120" height="30" as="geometry" />
        </mxCell>
        <mxCell id="NkZpbGha3Mq-hVSQ7GWd-67" value="AND" style="rounded=0;whiteSpace=wrap;html=1;fillColor=#fff2cc;strokeColor=#d6b656;" vertex="1" parent="1">
          <mxGeometry x="510" y="315" width="30" height="20" as="geometry" />
        </mxCell>
        <mxCell id="NkZpbGha3Mq-hVSQ7GWd-68" value="OR" style="rounded=0;whiteSpace=wrap;html=1;fillColor=#e1d5e7;strokeColor=#9673a6;" vertex="1" parent="1">
          <mxGeometry x="500" y="370" width="30" height="20" as="geometry" />
        </mxCell>
        <mxCell id="NkZpbGha3Mq-hVSQ7GWd-69" value="AND" style="rounded=0;whiteSpace=wrap;html=1;fillColor=#fff2cc;strokeColor=#d6b656;" vertex="1" parent="1">
          <mxGeometry x="530" y="430" width="30" height="20" as="geometry" />
        </mxCell>
        <mxCell id="NkZpbGha3Mq-hVSQ7GWd-70" value="seeking out cheap eats" style="rounded=0;whiteSpace=wrap;html=1;" vertex="1" parent="1">
          <mxGeometry x="780" y="440" width="120" height="30" as="geometry" />
        </mxCell>
        <mxCell id="NkZpbGha3Mq-hVSQ7GWd-71" value="tend to prioritize safety" style="rounded=0;whiteSpace=wrap;html=1;" vertex="1" parent="1">
          <mxGeometry x="630" y="345" width="120" height="30" as="geometry" />
        </mxCell>
        <mxCell id="NkZpbGha3Mq-hVSQ7GWd-72" value="prioritize activities that are suitable for all ages" style="rounded=0;whiteSpace=wrap;html=1;" vertex="1" parent="1">
          <mxGeometry x="630" y="275" width="120" height="50" as="geometry" />
        </mxCell>
        <mxCell id="NkZpbGha3Mq-hVSQ7GWd-73" value="travel with extended family" style="rounded=0;whiteSpace=wrap;html=1;" vertex="1" parent="1">
          <mxGeometry x="620" y="170" width="120" height="30" as="geometry" />
        </mxCell>
        <mxCell id="NkZpbGha3Mq-hVSQ7GWd-74" value="travel with children" style="rounded=0;whiteSpace=wrap;html=1;" vertex="1" parent="1">
          <mxGeometry x="620" y="120" width="120" height="30" as="geometry" />
        </mxCell>
        <mxCell id="NkZpbGha3Mq-hVSQ7GWd-75" value="OR" style="rounded=0;whiteSpace=wrap;html=1;fillColor=#e1d5e7;strokeColor=#9673a6;" vertex="1" parent="1">
          <mxGeometry x="660" y="150" width="30" height="20" as="geometry" />
        </mxCell>
        <mxCell id="NkZpbGha3Mq-hVSQ7GWd-76" value="" style="endArrow=none;html=1;rounded=0;exitX=0.5;exitY=0;exitDx=0;exitDy=0;" edge="1" parent="1" source="NkZpbGha3Mq-hVSQ7GWd-35" target="NkZpbGha3Mq-hVSQ7GWd-5">
          <mxGeometry width="50" height="50" relative="1" as="geometry">
            <mxPoint x="460" y="310" as="sourcePoint" />
            <mxPoint x="510" y="260" as="targetPoint" />
          </mxGeometry>
        </mxCell>
        <mxCell id="NkZpbGha3Mq-hVSQ7GWd-77" value="AND" style="rounded=0;whiteSpace=wrap;html=1;fillColor=#fff2cc;strokeColor=#d6b656;" vertex="1" parent="1">
          <mxGeometry x="665" y="220" width="30" height="20" as="geometry" />
        </mxCell>
        <mxCell id="NkZpbGha3Mq-hVSQ7GWd-78" value="tend to prioritize convenience" style="rounded=0;whiteSpace=wrap;html=1;" vertex="1" parent="1">
          <mxGeometry x="630" y="395" width="120" height="30" as="geometry" />
        </mxCell>
        <mxCell id="NkZpbGha3Mq-hVSQ7GWd-79" value="tend to prioritize affordability" style="rounded=0;whiteSpace=wrap;html=1;" vertex="1" parent="1">
          <mxGeometry x="630" y="445" width="120" height="30" as="geometry" />
        </mxCell>
        <mxCell id="NkZpbGha3Mq-hVSQ7GWd-80" value="AND" style="rounded=0;whiteSpace=wrap;html=1;fillColor=#fff2cc;strokeColor=#d6b656;" vertex="1" parent="1">
          <mxGeometry x="675" y="325" width="30" height="20" as="geometry" />
        </mxCell>
        <mxCell id="NkZpbGha3Mq-hVSQ7GWd-81" value="AND" style="rounded=0;whiteSpace=wrap;html=1;fillColor=#fff2cc;strokeColor=#d6b656;" vertex="1" parent="1">
          <mxGeometry x="675" y="375" width="30" height="20" as="geometry" />
        </mxCell>
        <mxCell id="NkZpbGha3Mq-hVSQ7GWd-83" value="AND" style="rounded=0;whiteSpace=wrap;html=1;fillColor=#fff2cc;strokeColor=#d6b656;" vertex="1" parent="1">
          <mxGeometry x="665" y="425" width="30" height="20" as="geometry" />
        </mxCell>
        <mxCell id="NkZpbGha3Mq-hVSQ7GWd-84" value="AND" style="rounded=0;whiteSpace=wrap;html=1;fillColor=#fff2cc;strokeColor=#d6b656;" vertex="1" parent="1">
          <mxGeometry x="665" y="475" width="30" height="20" as="geometry" />
        </mxCell>
        <mxCell id="NkZpbGha3Mq-hVSQ7GWd-85" value="" style="endArrow=none;html=1;rounded=0;entryX=0.75;entryY=1;entryDx=0;entryDy=0;exitX=0.25;exitY=0;exitDx=0;exitDy=0;" edge="1" parent="1" source="NkZpbGha3Mq-hVSQ7GWd-64" target="NkZpbGha3Mq-hVSQ7GWd-69">
          <mxGeometry width="50" height="50" relative="1" as="geometry">
            <mxPoint x="460" y="310" as="sourcePoint" />
            <mxPoint x="510" y="260" as="targetPoint" />
          </mxGeometry>
        </mxCell>
        <mxCell id="NkZpbGha3Mq-hVSQ7GWd-86" value="" style="endArrow=none;html=1;rounded=0;entryX=0.25;entryY=1;entryDx=0;entryDy=0;" edge="1" parent="1" source="NkZpbGha3Mq-hVSQ7GWd-64" target="NkZpbGha3Mq-hVSQ7GWd-84">
          <mxGeometry width="50" height="50" relative="1" as="geometry">
            <mxPoint x="460" y="310" as="sourcePoint" />
            <mxPoint x="510" y="260" as="targetPoint" />
          </mxGeometry>
        </mxCell>
        <mxCell id="NkZpbGha3Mq-hVSQ7GWd-87" value="staying in budget hotels" style="rounded=0;whiteSpace=wrap;html=1;" vertex="1" parent="1">
          <mxGeometry x="770" y="385" width="120" height="30" as="geometry" />
        </mxCell>
        <mxCell id="NkZpbGha3Mq-hVSQ7GWd-88" value="staying in hostels" style="rounded=0;whiteSpace=wrap;html=1;" vertex="1" parent="1">
          <mxGeometry x="770" y="335" width="120" height="30" as="geometry" />
        </mxCell>
        <mxCell id="NkZpbGha3Mq-hVSQ7GWd-89" value="travel on a shoestring budget" style="rounded=0;whiteSpace=wrap;html=1;" vertex="1" parent="1">
          <mxGeometry x="770" y="270" width="120" height="30" as="geometry" />
        </mxCell>
        <mxCell id="NkZpbGha3Mq-hVSQ7GWd-90" value="tend to seek out low-cost accommodations and activities" style="rounded=0;whiteSpace=wrap;html=1;" vertex="1" parent="1">
          <mxGeometry x="770" y="180" width="110" height="70" as="geometry" />
        </mxCell>
        <mxCell id="NkZpbGha3Mq-hVSQ7GWd-91" value="prioritize affordability over luxury" style="rounded=0;whiteSpace=wrap;html=1;" vertex="1" parent="1">
          <mxGeometry x="770" y="110" width="120" height="30" as="geometry" />
        </mxCell>
        <mxCell id="NkZpbGha3Mq-hVSQ7GWd-92" value="" style="endArrow=none;html=1;rounded=0;entryX=0.5;entryY=1;entryDx=0;entryDy=0;" edge="1" parent="1" source="NkZpbGha3Mq-hVSQ7GWd-91" target="NkZpbGha3Mq-hVSQ7GWd-6">
          <mxGeometry width="50" height="50" relative="1" as="geometry">
            <mxPoint x="460" y="310" as="sourcePoint" />
            <mxPoint x="510" y="260" as="targetPoint" />
          </mxGeometry>
        </mxCell>
        <mxCell id="NkZpbGha3Mq-hVSQ7GWd-93" value="" style="endArrow=none;html=1;rounded=0;entryX=1;entryY=0.75;entryDx=0;entryDy=0;exitX=0;exitY=0.75;exitDx=0;exitDy=0;" edge="1" parent="1" source="NkZpbGha3Mq-hVSQ7GWd-90" target="NkZpbGha3Mq-hVSQ7GWd-77">
          <mxGeometry width="50" height="50" relative="1" as="geometry">
            <mxPoint x="460" y="310" as="sourcePoint" />
            <mxPoint x="510" y="260" as="targetPoint" />
          </mxGeometry>
        </mxCell>
        <mxCell id="NkZpbGha3Mq-hVSQ7GWd-94" value="" style="endArrow=none;html=1;rounded=0;entryX=0;entryY=0.75;entryDx=0;entryDy=0;exitX=1;exitY=0.25;exitDx=0;exitDy=0;" edge="1" parent="1" source="NkZpbGha3Mq-hVSQ7GWd-95" target="NkZpbGha3Mq-hVSQ7GWd-90">
          <mxGeometry width="50" height="50" relative="1" as="geometry">
            <mxPoint x="460" y="310" as="sourcePoint" />
            <mxPoint x="510" y="260" as="targetPoint" />
          </mxGeometry>
        </mxCell>
        <mxCell id="NkZpbGha3Mq-hVSQ7GWd-95" value="AND" style="rounded=0;whiteSpace=wrap;html=1;fillColor=#fff2cc;strokeColor=#d6b656;" vertex="1" parent="1">
          <mxGeometry x="675" y="255" width="30" height="20" as="geometry" />
        </mxCell>
        <mxCell id="NkZpbGha3Mq-hVSQ7GWd-97" value="AND" style="rounded=0;whiteSpace=wrap;html=1;fillColor=#fff2cc;strokeColor=#d6b656;" vertex="1" parent="1">
          <mxGeometry x="810" y="140" width="30" height="20" as="geometry" />
        </mxCell>
        <mxCell id="NkZpbGha3Mq-hVSQ7GWd-98" value="" style="endArrow=none;html=1;rounded=0;entryX=0.25;entryY=1;entryDx=0;entryDy=0;" edge="1" parent="1" source="NkZpbGha3Mq-hVSQ7GWd-90" target="NkZpbGha3Mq-hVSQ7GWd-97">
          <mxGeometry width="50" height="50" relative="1" as="geometry">
            <mxPoint x="460" y="310" as="sourcePoint" />
            <mxPoint x="510" y="260" as="targetPoint" />
          </mxGeometry>
        </mxCell>
        <mxCell id="NkZpbGha3Mq-hVSQ7GWd-99" value="AND" style="rounded=0;whiteSpace=wrap;html=1;fillColor=#fff2cc;strokeColor=#d6b656;" vertex="1" parent="1">
          <mxGeometry x="810" y="250" width="30" height="20" as="geometry" />
        </mxCell>
        <mxCell id="NkZpbGha3Mq-hVSQ7GWd-101" value="OR" style="rounded=0;whiteSpace=wrap;html=1;fillColor=#e1d5e7;strokeColor=#9673a6;" vertex="1" parent="1">
          <mxGeometry x="805" y="365" width="30" height="20" as="geometry" />
        </mxCell>
        <mxCell id="NkZpbGha3Mq-hVSQ7GWd-102" value="AND" style="rounded=0;whiteSpace=wrap;html=1;fillColor=#fff2cc;strokeColor=#d6b656;" vertex="1" parent="1">
          <mxGeometry x="810" y="300" width="30" height="20" as="geometry" />
        </mxCell>
        <mxCell id="NkZpbGha3Mq-hVSQ7GWd-104" value="AND" style="rounded=0;whiteSpace=wrap;html=1;fillColor=#fff2cc;strokeColor=#d6b656;" vertex="1" parent="1">
          <mxGeometry x="815" y="420" width="30" height="20" as="geometry" />
        </mxCell>
      </root>
    </mxGraphModel>
  </diagram>
</mxfile>
